<svg width="157" height="38" viewBox="0 0 157 38" fill="none" xmlns="http://www.w3.org/2000/svg">
<rect width="141.904" height="38" transform="translate(8.05127)" fill="#202227"/>
<rect x="11.0706" y="4" width="80.5128" height="31" fill="#C1C2C5"/>
<path d="M22.8989 30.532C21.0509 30.532 19.4642 30.2147 18.1389 29.58C16.8136 28.9267 15.7309 28.0773 14.8909 27.032C14.0509 25.968 13.4256 24.8293 13.0149 23.616C12.6229 22.384 12.4269 21.1893 12.4269 20.032V19.416C12.4269 18.1467 12.6322 16.896 13.0429 15.664C13.4536 14.4133 14.0789 13.284 14.9189 12.276C15.7776 11.268 16.8509 10.4653 18.1389 9.868C19.4456 9.252 20.9856 8.944 22.7589 8.944C24.6069 8.944 26.2402 9.28933 27.6589 9.98C29.0776 10.6707 30.2069 11.632 31.0469 12.864C31.9056 14.0773 32.4096 15.5053 32.5589 17.148H27.9389C27.8082 16.3267 27.5096 15.6267 27.0429 15.048C26.5762 14.4693 25.9696 14.0213 25.2229 13.704C24.4949 13.3867 23.6736 13.228 22.7589 13.228C21.8442 13.228 21.0322 13.3867 20.3229 13.704C19.6136 14.0213 19.0162 14.4693 18.5309 15.048C18.0642 15.6267 17.7002 16.3173 17.4389 17.12C17.1962 17.904 17.0749 18.7813 17.0749 19.752C17.0749 20.704 17.1962 21.5813 17.4389 22.384C17.7002 23.168 18.0736 23.8587 18.5589 24.456C19.0629 25.0347 19.6789 25.4827 20.4069 25.8C21.1349 26.0987 21.9656 26.248 22.8989 26.248C24.3176 26.248 25.5122 25.9027 26.4829 25.212C27.4722 24.5213 28.0696 23.5693 28.2749 22.356H32.8669C32.6989 23.8493 32.1949 25.2213 31.3549 26.472C30.5336 27.704 29.4042 28.6933 27.9669 29.44C26.5482 30.168 24.8589 30.532 22.8989 30.532ZM44.3134 30.532C42.4654 30.532 40.8508 30.2147 39.4694 29.58C38.1068 28.9267 36.9774 28.0773 36.0814 27.032C35.1854 25.968 34.5134 24.82 34.0654 23.588C33.6361 22.356 33.4214 21.1707 33.4214 20.032V19.416C33.4214 18.1467 33.6454 16.896 34.0934 15.664C34.5601 14.4133 35.2508 13.284 36.1654 12.276C37.0801 11.268 38.2188 10.4653 39.5814 9.868C40.9441 9.252 42.5214 8.944 44.3134 8.944C46.1054 8.944 47.6828 9.252 49.0454 9.868C50.4081 10.4653 51.5468 11.268 52.4614 12.276C53.3761 13.284 54.0668 14.4133 54.5334 15.664C55.0001 16.896 55.2334 18.1467 55.2334 19.416V20.032C55.2334 21.1707 55.0094 22.356 54.5614 23.588C54.1134 24.82 53.4414 25.968 52.5454 27.032C51.6494 28.0773 50.5108 28.9267 49.1294 29.58C47.7668 30.2147 46.1614 30.532 44.3134 30.532ZM44.3134 26.248C45.2841 26.248 46.1521 26.08 46.9174 25.744C47.7014 25.408 48.3641 24.9413 48.9054 24.344C49.4654 23.7467 49.8854 23.056 50.1654 22.272C50.4454 21.488 50.5854 20.648 50.5854 19.752C50.5854 18.8 50.4361 17.932 50.1374 17.148C49.8574 16.3453 49.4374 15.6547 48.8774 15.076C48.3361 14.4787 47.6828 14.0213 46.9174 13.704C46.1521 13.3867 45.2841 13.228 44.3134 13.228C43.3428 13.228 42.4748 13.3867 41.7094 13.704C40.9441 14.0213 40.2814 14.4787 39.7214 15.076C39.1801 15.6547 38.7694 16.3453 38.4894 17.148C38.2094 17.932 38.0694 18.8 38.0694 19.752C38.0694 20.648 38.2094 21.488 38.4894 22.272C38.7694 23.056 39.1801 23.7467 39.7214 24.344C40.2814 24.9413 40.9441 25.408 41.7094 25.744C42.4748 26.08 43.3428 26.248 44.3134 26.248ZM61.3446 30.112V25.828H65.1526C66.1046 25.828 66.9633 25.688 67.7286 25.408C68.494 25.1093 69.1473 24.6987 69.6886 24.176C70.23 23.6347 70.6406 22.9907 70.9206 22.244C71.2006 21.4787 71.3406 20.6387 71.3406 19.724C71.3406 18.772 71.2006 17.9227 70.9206 17.176C70.6406 16.4293 70.23 15.7947 69.6886 15.272C69.1473 14.7493 68.494 14.3573 67.7286 14.096C66.9633 13.816 66.1046 13.676 65.1526 13.676H61.3446V9.392H64.9006C66.7486 9.392 68.3633 9.66267 69.7446 10.204C71.126 10.7453 72.2833 11.4827 73.2166 12.416C74.15 13.3493 74.8406 14.4227 75.2886 15.636C75.7553 16.8307 75.9886 18.0907 75.9886 19.416V20.032C75.9886 21.264 75.7553 22.4867 75.2886 23.7C74.8406 24.8947 74.15 25.9773 73.2166 26.948C72.2833 27.9 71.126 28.6653 69.7446 29.244C68.3633 29.8227 66.7486 30.112 64.9006 30.112H61.3446ZM57.3126 30.112V9.392H61.9046V30.112H57.3126ZM77.7876 30V9.56H82.2676V30H77.7876ZM81.7076 30V26.192H90.6396V30H81.7076ZM81.7076 21.516V17.708H89.9956V21.516H81.7076ZM81.7076 13.368V9.56H90.4436V13.368H81.7076Z" fill="#202227"/>
<path d="M93.3206 26.08V21.292L101.077 8.972L104.633 11.296L97.9966 21.852L98.3886 22.44H110.625V26.08H93.3206ZM104.045 30V15.272H108.273V30H104.045ZM119.105 30.532C117.481 30.532 116.09 30.2707 114.933 29.748C113.776 29.2067 112.833 28.4787 112.105 27.564C111.396 26.6493 110.864 25.5947 110.509 24.4C110.173 23.1867 110.005 21.908 110.005 20.564V18.968C110.005 17.1013 110.332 15.412 110.985 13.9C111.638 12.388 112.637 11.184 113.981 10.288C115.325 9.392 117.033 8.944 119.105 8.944C121.177 8.944 122.876 9.392 124.201 10.288C125.545 11.184 126.544 12.388 127.197 13.9C127.85 15.412 128.177 17.1013 128.177 18.968V20.564C128.177 21.908 128 23.1867 127.645 24.4C127.309 25.5947 126.777 26.6493 126.049 27.564C125.34 28.4787 124.406 29.2067 123.249 29.748C122.11 30.2707 120.729 30.532 119.105 30.532ZM119.105 26.304C120.617 26.304 121.737 25.7813 122.465 24.736C123.212 23.672 123.585 22.0293 123.585 19.808C123.585 17.456 123.202 15.7667 122.437 14.74C121.69 13.6947 120.58 13.172 119.105 13.172C117.593 13.172 116.464 13.6947 115.717 14.74C114.97 15.7667 114.597 17.4373 114.597 19.752C114.597 21.992 114.961 23.644 115.689 24.708C116.436 25.772 117.574 26.304 119.105 26.304ZM127.889 26.08V21.292L135.645 8.972L139.201 11.296L132.565 21.852L132.957 22.44H145.193V26.08H127.889ZM138.613 30V15.272H142.841V30H138.613Z" fill="#C1C2C5"/>
<line x1="44.2886" y1="32.0098" x2="44.2886" y2="7.99976" stroke="#C1C2C5" stroke-width="2"/>
<line y1="-1" x2="14.4588" y2="-1" transform="matrix(0.556842 -0.830618 0.833887 0.551935 120.769 18.0098)" stroke="#202227" stroke-width="2"/>
<line x1="82.532" y1="32.0098" x2="82.532" y2="7.99976" stroke="#C1C2C5" stroke-width="2"/>
<line x1="136.878" y1="29" x2="136.878" y2="19" stroke="#202227" stroke-width="2"/>
</svg>
